<svg width="1280" height="720" viewBox="0 0 1280 720" fill="none" xmlns="http://www.w3.org/2000/svg" role="img" aria-label="Meeting room placeholder">
  <rect width="1280" height="720" fill="#100E19"/>
  <rect x="96" y="92" width="1088" height="536" rx="36" fill="url(#surface)"/>
  <path d="M96 500L1184 368V628H96V500Z" fill="#07050E" fill-opacity=".72"/>
  <rect x="198" y="214" width="884" height="260" rx="18" fill="#24222F"/>
  <rect x="242" y="256" width="796" height="42" rx="8" fill="#353146"/>
  <rect x="242" y="326" width="238" height="116" rx="14" fill="#1B1923"/>
  <rect x="522" y="326" width="238" height="116" rx="14" fill="#1B1923"/>
  <rect x="800" y="326" width="238" height="116" rx="14" fill="#1B1923"/>
  <circle cx="1042" cy="178" r="54" fill="#F30745" fill-opacity=".8"/>
  <circle cx="956" cy="174" r="32" fill="#A869F0" fill-opacity=".78"/>
  <rect x="214" y="526" width="236" height="18" rx="9" fill="#FFFFFF" fill-opacity=".72"/>
  <rect x="214" y="562" width="382" height="14" rx="7" fill="#FFFFFF" fill-opacity=".38"/>
  <defs>
    <linearGradient id="surface" x1="96" y1="92" x2="1184" y2="628" gradientUnits="userSpaceOnUse">
      <stop stop-color="#1B1923"/>
      <stop offset="1" stop-color="#282534"/>
    </linearGradient>
  </defs>
</svg>
